<svg xmlns="http://www.w3.org/2000/svg" aria-hidden="true" style="position:absolute;width:0;height:0;overflow:hidden">
  <defs>
  <symbol id="icon-cart" viewBox="0 0 32 32">
    <path d="M12 29c0 1.657-1.343 3-3 3s-3-1.343-3-3c0-1.657 1.343-3 3-3s3 1.343 3 3z"></path>
      <path d="M32 29c0 1.657-1.343 3-3 3s-3-1.343-3-3c0-1.657 1.343-3 3-3s3 1.343 3 3z"></path>
    <path d="M32 16v-12h-24c0-1.105-0.895-2-2-2h-6v2h4l1.502 12.877c-0.915 0.733-1.502 1.859-1.502 3.123 0 2.209 1.791 4 4 4h24v-2h-24c-1.105 0-2-0.895-2-2 0-0.007 0-0.014 0-0.020l26-3.98z"></path>
  </symbol>
    <!-- Menu -->
    <symbol id="icon-menu" viewBox="0 0 32 32">
      <path d="M6.4 11.734v-2.134h19.2v2.134h-19.2zM6.4 17.066h19.2v-2.133h-19.2v2.133zM6.4 22.4h19.2v-2.134h-19.2v2.134z"></path>
    </symbol>
    <symbol id="icon-close" viewBox="0 0 32 32">
      <path d="M23.734 10.304l-1.504-1.504-5.963 5.962-5.962-5.962-1.504 1.504 5.962 5.962-5.962 5.963 1.504 1.504 5.962-5.963 5.963 5.963 1.504-1.504-5.963-5.963 5.963-5.962z"></path>
    </symbol>
    <!-- Hero -->
    <symbol id="icon-decor" viewBox="0 0 32 32">
<path fill="#81818b" style="fill: var(--color1, #81818b)" opacity="0.2" d="M1.512 0.114c0.718 0 1.301 0.582 1.301 1.301s-0.582 1.301-1.301 1.301c-0.718 0-1.301-0.582-1.301-1.301s0.582-1.301 1.301-1.301z"></path>
<path fill="#81818b" style="fill: var(--color1, #81818b)" opacity="0.2" d="M5.675 0.114c0.718 0 1.301 0.582 1.301 1.301s-0.582 1.301-1.301 1.301c-0.718 0-1.301-0.582-1.301-1.301s0.582-1.301 1.301-1.301z"></path>
<path fill="#81818b" style="fill: var(--color1, #81818b)" opacity="0.2" d="M9.837 0.114c0.718 0 1.301 0.582 1.301 1.301s-0.582 1.301-1.301 1.301c-0.718 0-1.301-0.582-1.301-1.301s0.582-1.301 1.301-1.301z"></path>
<path fill="#81818b" style="fill: var(--color1, #81818b)" opacity="0.2" d="M14 0.114c0.718 0 1.301 0.582 1.301 1.301s-0.582 1.301-1.301 1.301c-0.718 0-1.301-0.582-1.301-1.301s0.582-1.301 1.301-1.301z"></path>
<path fill="#81818b" style="fill: var(--color1, #81818b)" opacity="0.2" d="M18.163 0.114c0.718 0 1.301 0.582 1.301 1.301s-0.582 1.301-1.301 1.301c-0.718 0-1.301-0.582-1.301-1.301s0.582-1.301 1.301-1.301z"></path>
<path fill="#81818b" style="fill: var(--color1, #81818b)" opacity="0.2" d="M22.325 0.114c0.718 0 1.301 0.582 1.301 1.301s-0.582 1.301-1.301 1.301c-0.718 0-1.301-0.582-1.301-1.301s0.582-1.301 1.301-1.301z"></path>
<path fill="#81818b" style="fill: var(--color1, #81818b)" opacity="0.2" d="M26.488 0.114c0.718 0 1.301 0.582 1.301 1.301s-0.582 1.301-1.301 1.301c-0.718 0-1.301-0.582-1.301-1.301s0.582-1.301 1.301-1.301z"></path>
<path fill="#81818b" style="fill: var(--color1, #81818b)" opacity="0.2" d="M30.65 0.114c0.718 0 1.301 0.582 1.301 1.301s-0.582 1.301-1.301 1.301c-0.718 0-1.301-0.582-1.301-1.301s0.582-1.301 1.301-1.301z"></path>
<path fill="#81818b" style="fill: var(--color1, #81818b)" opacity="0.2" d="M1.512 4.276c0.718 0 1.301 0.582 1.301 1.301s-0.582 1.301-1.301 1.301c-0.718 0-1.301-0.582-1.301-1.301s0.582-1.301 1.301-1.301z"></path>
<path fill="#81818b" style="fill: var(--color1, #81818b)" opacity="0.2" d="M5.675 4.276c0.718 0 1.301 0.582 1.301 1.301s-0.582 1.301-1.301 1.301c-0.718 0-1.301-0.582-1.301-1.301s0.582-1.301 1.301-1.301z"></path>
<path fill="#81818b" style="fill: var(--color1, #81818b)" opacity="0.2" d="M9.837 4.276c0.718 0 1.301 0.582 1.301 1.301s-0.582 1.301-1.301 1.301c-0.718 0-1.301-0.582-1.301-1.301s0.582-1.301 1.301-1.301z"></path>
<path fill="#81818b" style="fill: var(--color1, #81818b)" opacity="0.2" d="M14 4.276c0.718 0 1.301 0.582 1.301 1.301s-0.582 1.301-1.301 1.301c-0.718 0-1.301-0.582-1.301-1.301s0.582-1.301 1.301-1.301z"></path>
<path fill="#81818b" style="fill: var(--color1, #81818b)" opacity="0.2" d="M18.163 4.276c0.718 0 1.301 0.582 1.301 1.301s-0.582 1.301-1.301 1.301c-0.718 0-1.301-0.582-1.301-1.301s0.582-1.301 1.301-1.301z"></path>
<path fill="#81818b" style="fill: var(--color1, #81818b)" opacity="0.2" d="M22.325 4.276c0.718 0 1.301 0.582 1.301 1.301s-0.582 1.301-1.301 1.301c-0.718 0-1.301-0.582-1.301-1.301s0.582-1.301 1.301-1.301z"></path>
<path fill="#81818b" style="fill: var(--color1, #81818b)" opacity="0.2" d="M26.488 4.276c0.718 0 1.301 0.582 1.301 1.301s-0.582 1.301-1.301 1.301c-0.718 0-1.301-0.582-1.301-1.301s0.582-1.301 1.301-1.301z"></path>
<path fill="#81818b" style="fill: var(--color1, #81818b)" opacity="0.2" d="M30.65 4.276c0.718 0 1.301 0.582 1.301 1.301s-0.582 1.301-1.301 1.301c-0.718 0-1.301-0.582-1.301-1.301s0.582-1.301 1.301-1.301z"></path>
<path fill="#81818b" style="fill: var(--color1, #81818b)" opacity="0.2" d="M1.512 8.439c0.718 0 1.301 0.582 1.301 1.301s-0.582 1.301-1.301 1.301c-0.718 0-1.301-0.582-1.301-1.301s0.582-1.301 1.301-1.301z"></path>
<path fill="#81818b" style="fill: var(--color1, #81818b)" opacity="0.2" d="M5.675 8.439c0.718 0 1.301 0.582 1.301 1.301s-0.582 1.301-1.301 1.301c-0.718 0-1.301-0.582-1.301-1.301s0.582-1.301 1.301-1.301z"></path>
<path fill="#81818b" style="fill: var(--color1, #81818b)" opacity="0.2" d="M9.837 8.439c0.718 0 1.301 0.582 1.301 1.301s-0.582 1.301-1.301 1.301c-0.718 0-1.301-0.582-1.301-1.301s0.582-1.301 1.301-1.301z"></path>
<path fill="#81818b" style="fill: var(--color1, #81818b)" opacity="0.2" d="M14 8.439c0.718 0 1.301 0.582 1.301 1.301s-0.582 1.301-1.301 1.301c-0.718 0-1.301-0.582-1.301-1.301s0.582-1.301 1.301-1.301z"></path>
<path fill="#81818b" style="fill: var(--color1, #81818b)" opacity="0.2" d="M18.163 8.439c0.718 0 1.301 0.582 1.301 1.301s-0.582 1.301-1.301 1.301c-0.718 0-1.301-0.582-1.301-1.301s0.582-1.301 1.301-1.301z"></path>
<path fill="#81818b" style="fill: var(--color1, #81818b)" opacity="0.2" d="M22.325 8.439c0.718 0 1.301 0.582 1.301 1.301s-0.582 1.301-1.301 1.301c-0.718 0-1.301-0.582-1.301-1.301s0.582-1.301 1.301-1.301z"></path>
<path fill="#81818b" style="fill: var(--color1, #81818b)" opacity="0.2" d="M26.488 8.439c0.718 0 1.301 0.582 1.301 1.301s-0.582 1.301-1.301 1.301c-0.718 0-1.301-0.582-1.301-1.301s0.582-1.301 1.301-1.301z"></path>
<path fill="#81818b" style="fill: var(--color1, #81818b)" opacity="0.2" d="M30.65 8.439c0.718 0 1.301 0.582 1.301 1.301s-0.582 1.301-1.301 1.301c-0.718 0-1.301-0.582-1.301-1.301s0.582-1.301 1.301-1.301z"></path>
<path fill="#81818b" style="fill: var(--color1, #81818b)" opacity="0.2" d="M1.512 12.602c0.718 0 1.301 0.582 1.301 1.301s-0.582 1.301-1.301 1.301c-0.718 0-1.301-0.582-1.301-1.301s0.582-1.301 1.301-1.301z"></path>
<path fill="#81818b" style="fill: var(--color1, #81818b)" opacity="0.2" d="M5.675 12.602c0.718 0 1.301 0.582 1.301 1.301s-0.582 1.301-1.301 1.301c-0.718 0-1.301-0.582-1.301-1.301s0.582-1.301 1.301-1.301z"></path>
<path fill="#81818b" style="fill: var(--color1, #81818b)" opacity="0.2" d="M9.837 12.602c0.718 0 1.301 0.582 1.301 1.301s-0.582 1.301-1.301 1.301c-0.718 0-1.301-0.582-1.301-1.301s0.582-1.301 1.301-1.301z"></path>
<path fill="#81818b" style="fill: var(--color1, #81818b)" opacity="0.2" d="M14 12.602c0.718 0 1.301 0.582 1.301 1.301s-0.582 1.301-1.301 1.301c-0.718 0-1.301-0.582-1.301-1.301s0.582-1.301 1.301-1.301z"></path>
<path fill="#81818b" style="fill: var(--color1, #81818b)" opacity="0.2" d="M18.163 12.602c0.718 0 1.301 0.582 1.301 1.301s-0.582 1.301-1.301 1.301c-0.718 0-1.301-0.582-1.301-1.301s0.582-1.301 1.301-1.301z"></path>
<path fill="#81818b" style="fill: var(--color1, #81818b)" opacity="0.2" d="M22.325 12.602c0.718 0 1.301 0.582 1.301 1.301s-0.582 1.301-1.301 1.301c-0.718 0-1.301-0.582-1.301-1.301s0.582-1.301 1.301-1.301z"></path>
<path fill="#81818b" style="fill: var(--color1, #81818b)" opacity="0.2" d="M26.488 12.602c0.718 0 1.301 0.582 1.301 1.301s-0.582 1.301-1.301 1.301c-0.718 0-1.301-0.582-1.301-1.301s0.582-1.301 1.301-1.301z"></path>
<path fill="#81818b" style="fill: var(--color1, #81818b)" opacity="0.2" d="M30.65 12.602c0.718 0 1.301 0.582 1.301 1.301s-0.582 1.301-1.301 1.301c-0.718 0-1.301-0.582-1.301-1.301s0.582-1.301 1.301-1.301z"></path>
<path fill="#81818b" style="fill: var(--color1, #81818b)" opacity="0.2" d="M1.512 16.764c0.718 0 1.301 0.582 1.301 1.301s-0.582 1.301-1.301 1.301c-0.718 0-1.301-0.582-1.301-1.301s0.582-1.301 1.301-1.301z"></path>
<path fill="#81818b" style="fill: var(--color1, #81818b)" opacity="0.2" d="M5.675 16.764c0.718 0 1.301 0.582 1.301 1.301s-0.582 1.301-1.301 1.301c-0.718 0-1.301-0.582-1.301-1.301s0.582-1.301 1.301-1.301z"></path>
<path fill="#81818b" style="fill: var(--color1, #81818b)" opacity="0.2" d="M9.837 16.764c0.718 0 1.301 0.582 1.301 1.301s-0.582 1.301-1.301 1.301c-0.718 0-1.301-0.582-1.301-1.301s0.582-1.301 1.301-1.301z"></path>
<path fill="#81818b" style="fill: var(--color1, #81818b)" opacity="0.2" d="M14 16.764c0.718 0 1.301 0.582 1.301 1.301s-0.582 1.301-1.301 1.301c-0.718 0-1.301-0.582-1.301-1.301s0.582-1.301 1.301-1.301z"></path>
<path fill="#81818b" style="fill: var(--color1, #81818b)" opacity="0.2" d="M18.163 16.764c0.718 0 1.301 0.582 1.301 1.301s-0.582 1.301-1.301 1.301c-0.718 0-1.301-0.582-1.301-1.301s0.582-1.301 1.301-1.301z"></path>
<path fill="#81818b" style="fill: var(--color1, #81818b)" opacity="0.2" d="M22.325 16.764c0.718 0 1.301 0.582 1.301 1.301s-0.582 1.301-1.301 1.301c-0.718 0-1.301-0.582-1.301-1.301s0.582-1.301 1.301-1.301z"></path>
<path fill="#81818b" style="fill: var(--color1, #81818b)" opacity="0.2" d="M26.488 16.764c0.718 0 1.301 0.582 1.301 1.301s-0.582 1.301-1.301 1.301c-0.718 0-1.301-0.582-1.301-1.301s0.582-1.301 1.301-1.301z"></path>
<path fill="#81818b" style="fill: var(--color1, #81818b)" opacity="0.2" d="M30.65 16.764c0.718 0 1.301 0.582 1.301 1.301s-0.582 1.301-1.301 1.301c-0.718 0-1.301-0.582-1.301-1.301s0.582-1.301 1.301-1.301z"></path>
<path fill="#81818b" style="fill: var(--color1, #81818b)" opacity="0.2" d="M1.512 20.927c0.718 0 1.301 0.582 1.301 1.301s-0.582 1.301-1.301 1.301c-0.718 0-1.301-0.582-1.301-1.301s0.582-1.301 1.301-1.301z"></path>
<path fill="#81818b" style="fill: var(--color1, #81818b)" opacity="0.2" d="M5.675 20.927c0.718 0 1.301 0.582 1.301 1.301s-0.582 1.301-1.301 1.301c-0.718 0-1.301-0.582-1.301-1.301s0.582-1.301 1.301-1.301z"></path>
<path fill="#81818b" style="fill: var(--color1, #81818b)" opacity="0.2" d="M9.837 20.927c0.718 0 1.301 0.582 1.301 1.301s-0.582 1.301-1.301 1.301c-0.718 0-1.301-0.582-1.301-1.301s0.582-1.301 1.301-1.301z"></path>
<path fill="#81818b" style="fill: var(--color1, #81818b)" opacity="0.2" d="M14 20.927c0.718 0 1.301 0.582 1.301 1.301s-0.582 1.301-1.301 1.301c-0.718 0-1.301-0.582-1.301-1.301s0.582-1.301 1.301-1.301z"></path>
<path fill="#81818b" style="fill: var(--color1, #81818b)" opacity="0.2" d="M18.163 20.927c0.718 0 1.301 0.582 1.301 1.301s-0.582 1.301-1.301 1.301c-0.718 0-1.301-0.582-1.301-1.301s0.582-1.301 1.301-1.301z"></path>
<path fill="#81818b" style="fill: var(--color1, #81818b)" opacity="0.2" d="M22.325 20.927c0.718 0 1.301 0.582 1.301 1.301s-0.582 1.301-1.301 1.301c-0.718 0-1.301-0.582-1.301-1.301s0.582-1.301 1.301-1.301z"></path>
<path fill="#81818b" style="fill: var(--color1, #81818b)" opacity="0.2" d="M26.488 20.927c0.718 0 1.301 0.582 1.301 1.301s-0.582 1.301-1.301 1.301c-0.718 0-1.301-0.582-1.301-1.301s0.582-1.301 1.301-1.301z"></path>
<path fill="#81818b" style="fill: var(--color1, #81818b)" opacity="0.2" d="M30.65 20.927c0.718 0 1.301 0.582 1.301 1.301s-0.582 1.301-1.301 1.301c-0.718 0-1.301-0.582-1.301-1.301s0.582-1.301 1.301-1.301z"></path>
<path fill="#81818b" style="fill: var(--color1, #81818b)" opacity="0.2" d="M1.512 25.089c0.718 0 1.301 0.582 1.301 1.301s-0.582 1.301-1.301 1.301c-0.718 0-1.301-0.582-1.301-1.301s0.582-1.301 1.301-1.301z"></path>
<path fill="#81818b" style="fill: var(--color1, #81818b)" opacity="0.2" d="M5.675 25.089c0.718 0 1.301 0.582 1.301 1.301s-0.582 1.301-1.301 1.301c-0.718 0-1.301-0.582-1.301-1.301s0.582-1.301 1.301-1.301z"></path>
<path fill="#81818b" style="fill: var(--color1, #81818b)" opacity="0.2" d="M9.837 25.089c0.718 0 1.301 0.582 1.301 1.301s-0.582 1.301-1.301 1.301c-0.718 0-1.301-0.582-1.301-1.301s0.582-1.301 1.301-1.301z"></path>
<path fill="#81818b" style="fill: var(--color1, #81818b)" opacity="0.2" d="M14 25.089c0.718 0 1.301 0.582 1.301 1.301s-0.582 1.301-1.301 1.301c-0.718 0-1.301-0.582-1.301-1.301s0.582-1.301 1.301-1.301z"></path>
<path fill="#81818b" style="fill: var(--color1, #81818b)" opacity="0.2" d="M18.163 25.089c0.718 0 1.301 0.582 1.301 1.301s-0.582 1.301-1.301 1.301c-0.718 0-1.301-0.582-1.301-1.301s0.582-1.301 1.301-1.301z"></path>
<path fill="#81818b" style="fill: var(--color1, #81818b)" opacity="0.2" d="M22.325 25.089c0.718 0 1.301 0.582 1.301 1.301s-0.582 1.301-1.301 1.301c-0.718 0-1.301-0.582-1.301-1.301s0.582-1.301 1.301-1.301z"></path>
<path fill="#81818b" style="fill: var(--color1, #81818b)" opacity="0.2" d="M26.488 25.089c0.718 0 1.301 0.582 1.301 1.301s-0.582 1.301-1.301 1.301c-0.718 0-1.301-0.582-1.301-1.301s0.582-1.301 1.301-1.301z"></path>
<path fill="#81818b" style="fill: var(--color1, #81818b)" opacity="0.2" d="M30.65 25.089c0.718 0 1.301 0.582 1.301 1.301s-0.582 1.301-1.301 1.301c-0.718 0-1.301-0.582-1.301-1.301s0.582-1.301 1.301-1.301z"></path>
<path fill="#81818b" style="fill: var(--color1, #81818b)" opacity="0.2" d="M1.512 29.252c0.718 0 1.301 0.582 1.301 1.301s-0.582 1.301-1.301 1.301c-0.718 0-1.301-0.582-1.301-1.301s0.582-1.301 1.301-1.301z"></path>
<path fill="#81818b" style="fill: var(--color1, #81818b)" opacity="0.2" d="M5.675 29.252c0.718 0 1.301 0.582 1.301 1.301s-0.582 1.301-1.301 1.301c-0.718 0-1.301-0.582-1.301-1.301s0.582-1.301 1.301-1.301z"></path>
<path fill="#81818b" style="fill: var(--color1, #81818b)" opacity="0.2" d="M9.837 29.252c0.718 0 1.301 0.582 1.301 1.301s-0.582 1.301-1.301 1.301c-0.718 0-1.301-0.582-1.301-1.301s0.582-1.301 1.301-1.301z"></path>
<path fill="#81818b" style="fill: var(--color1, #81818b)" opacity="0.2" d="M14 29.252c0.718 0 1.301 0.582 1.301 1.301s-0.582 1.301-1.301 1.301c-0.718 0-1.301-0.582-1.301-1.301s0.582-1.301 1.301-1.301z"></path>
<path fill="#81818b" style="fill: var(--color1, #81818b)" opacity="0.2" d="M18.163 29.252c0.718 0 1.301 0.582 1.301 1.301s-0.582 1.301-1.301 1.301c-0.718 0-1.301-0.582-1.301-1.301s0.582-1.301 1.301-1.301z"></path>
<path fill="#81818b" style="fill: var(--color1, #81818b)" opacity="0.2" d="M22.325 29.252c0.718 0 1.301 0.582 1.301 1.301s-0.582 1.301-1.301 1.301c-0.718 0-1.301-0.582-1.301-1.301s0.582-1.301 1.301-1.301z"></path>
<path fill="#81818b" style="fill: var(--color1, #81818b)" opacity="0.2" d="M26.488 29.252c0.718 0 1.301 0.582 1.301 1.301s-0.582 1.301-1.301 1.301c-0.718 0-1.301-0.582-1.301-1.301s0.582-1.301 1.301-1.301z"></path>
<path fill="#81818b" style="fill: var(--color1, #81818b)" opacity="0.2" d="M30.65 29.252c0.718 0 1.301 0.582 1.301 1.301s-0.582 1.301-1.301 1.301c-0.718 0-1.301-0.582-1.301-1.301s0.582-1.301 1.301-1.301z"></path>
</symbol>

    </defs>
</svg>